# xmcd
#
# Track frame offsets:
# 150
# 12147
# 25150
# 43050
# 59517
# 74980
# 90025
# 104137
# 122320
# 139320
#
# Disc length: 2059 seconds
#
#
# Revision: 0
# Processed by: cddbd v1.5.1PL0 Copyright (c) Steve Scherf et al.
# Submitted via: FreeRIP 2.91 
#
DISCID=8908090a
DTITLE=Oak Ridge Boys - McBride and The Ride - Double Barrel Country
DYEAR=0099
DGENRE=Country
TTITLE0=Elvira
TTITLE1=No Matter How High
TTITLE2=It Takes A Little Rain (To Make Love Grow)
TTITLE3=Fancy Free
TTITLE4=Little Things
TTITLE5=Sacred Ground
TTITLE6=Every Step of The Way
TTITLE7=Going Out of My Mind
TTITLE8=Just One Night
TTITLE9=Your One and Only
EXTD=Combination CD of both artists
EXTT0=
EXTT1=
EXTT2=
EXTT3=
EXTT4=
EXTT5=
EXTT6=
EXTT7=
EXTT8=
EXTT9=
PLAYORDER=
